<svg width="30" height="30" viewBox="0 0 30 30" fill="none" xmlns="http://www.w3.org/2000/svg">
<path d="M25.565 9.78496C25.442 9.86196 22.514 11.487 22.514 15.09C22.652 19.199 26.209 20.64 26.27 20.64C26.209 20.717 25.733 22.603 24.323 24.58C23.204 26.283 21.962 28 20.076 28C18.282 28 17.638 26.865 15.568 26.865C13.345 26.865 12.716 28 11.014 28C9.12804 28 7.79404 26.191 6.61404 24.504C5.08104 22.296 3.77804 18.831 3.73204 15.504C3.70104 13.741 4.03904 12.008 4.89704 10.536C6.10804 8.48096 8.27004 7.08596 10.631 7.03996C12.44 6.97896 14.05 8.28196 15.154 8.28196C16.212 8.28196 18.19 7.03996 20.428 7.03996C21.394 7.04096 23.97 7.33196 25.565 9.78496ZM15.001 6.68796C14.679 5.07796 15.568 3.46796 16.396 2.44096C17.454 1.19896 19.125 0.355957 20.566 0.355957C20.658 1.96596 20.075 3.54496 19.033 4.69496C18.098 5.93696 16.488 6.87196 15.001 6.68796Z" fill="white"/>
</svg>
