<svg width="552" height="454" viewBox="0 0 552 454" fill="none" xmlns="http://www.w3.org/2000/svg">
<path d="M96.4911 32.1845C83.0244 35.7846 73.9577 42.0512 56.8911 59.7846C31.6911 86.1846 27.1577 93.6512 25.2911 112.451C23.6911 128.718 28.7577 145.918 38.7577 157.518C41.4244 160.718 48.3577 166.851 54.0911 171.251C60.6244 176.185 64.8911 180.451 65.4244 182.585C65.9577 184.718 63.4244 195.918 58.0911 214.851C48.0911 250.585 46.7577 256.985 47.6911 270.318C49.9577 303.518 82.8911 328.585 117.824 323.385C131.691 321.385 140.358 316.718 152.491 305.251C158.358 299.651 163.691 295.118 164.224 295.118C169.158 295.118 169.824 302.985 165.958 315.251C162.091 328.185 139.291 410.318 139.691 410.451C140.491 410.985 193.291 424.318 193.424 424.051C194.624 422.051 223.824 312.851 224.758 306.451C227.291 290.851 221.958 272.985 211.024 259.918C201.024 247.918 181.024 238.985 163.691 238.851C146.891 238.851 133.691 244.451 119.691 258.051C113.824 263.785 109.291 267.118 107.824 266.851C102.091 265.785 102.491 263.118 111.958 228.851C124.891 182.718 125.158 168.851 113.424 150.585C107.958 142.051 103.824 137.918 91.6911 128.985C78.3577 119.118 78.3577 118.585 95.8244 100.718C109.024 87.2512 109.824 86.5846 113.424 87.7846C115.958 88.7179 119.691 92.9846 125.158 101.118C140.758 124.185 153.158 133.651 171.824 136.718C183.291 138.585 200.758 136.451 210.358 131.918C217.691 128.318 230.491 116.318 240.491 103.518C246.891 95.3846 247.824 94.5846 251.824 95.6512C256.358 96.7179 267.824 118.185 267.691 125.118C267.558 129.785 245.158 261.918 233.824 324.318C229.291 350.185 229.024 354.585 232.491 356.318C235.158 357.785 272.891 364.451 278.358 364.451C280.624 364.451 282.091 363.385 283.158 360.718C283.958 358.718 292.091 313.651 301.291 260.451C310.491 207.251 319.158 157.651 320.624 150.051C323.824 133.251 324.091 114.318 321.158 104.318C318.491 95.3846 304.758 70.0512 297.691 61.1179C294.758 57.3846 290.358 52.8512 287.958 50.8512C271.291 36.9846 244.891 34.3179 223.558 44.4512C213.691 49.1179 207.824 54.3179 196.091 68.9846C191.024 75.2512 186.091 80.5846 185.024 80.9846C181.424 82.4512 178.091 79.1179 168.624 65.2512C157.424 48.8512 149.958 41.6512 138.891 36.3179C124.224 29.5179 111.558 28.3179 96.4911 32.1845ZM128.758 34.5846C144.491 39.1179 153.291 46.3179 166.224 65.3846C181.424 87.7846 183.291 87.9179 199.024 68.4512C216.758 46.7179 231.158 39.5179 254.758 40.7179C265.291 41.2512 268.624 42.0512 275.691 45.5179C289.958 52.5846 300.624 65.6512 314.358 93.1179C322.091 108.851 323.558 120.851 320.091 141.785C319.024 148.051 310.624 196.318 301.424 249.118C292.358 301.918 284.358 348.051 283.824 351.518C283.424 354.985 281.958 359.118 280.758 360.585C278.624 363.251 278.491 363.251 256.224 359.385C243.824 357.251 233.158 354.851 232.358 354.051C231.424 353.118 231.824 347.785 233.691 336.851C235.158 328.185 243.958 277.518 253.158 224.185C262.358 170.985 269.958 125.785 269.958 123.785C269.958 118.985 256.758 95.1179 253.291 93.7846C248.758 92.0512 245.958 93.9179 236.758 104.985C224.491 119.651 216.491 126.718 207.558 130.851C200.491 134.185 198.624 134.451 182.624 134.451C166.224 134.451 164.891 134.185 157.558 130.718C147.424 125.651 137.691 116.051 127.558 100.851C123.024 94.0512 117.691 87.5179 115.824 86.1846C112.624 84.0512 112.091 84.1846 107.691 86.4512C102.624 89.2512 81.2911 112.051 79.9577 116.318C78.6244 120.451 81.1577 123.785 91.6911 131.518C108.624 144.051 116.091 154.718 119.424 170.851C121.824 182.185 120.091 192.985 110.091 228.451C105.558 244.185 101.958 258.851 101.958 260.985C101.958 265.251 105.158 269.785 108.224 269.785C109.158 269.785 114.758 265.385 120.624 259.918C137.691 243.918 153.691 238.318 172.891 241.518C193.291 245.118 209.691 256.985 218.091 274.718C223.424 285.651 224.624 300.051 221.558 313.785C219.824 321.785 192.624 420.585 191.958 421.518C191.691 421.785 143.158 409.651 142.224 408.985C141.824 408.718 161.291 337.785 166.758 319.518C171.958 302.185 171.158 293.785 164.491 293.785C163.024 293.785 157.158 298.185 151.424 303.651C145.558 309.118 137.291 315.251 133.024 317.251C125.824 320.851 124.091 321.118 109.958 321.118C97.1577 321.118 93.2911 320.585 86.6244 318.051C76.4911 314.185 66.8911 306.985 60.3577 298.451C47.4244 281.518 46.0911 264.451 55.1577 232.451C68.8911 184.051 69.0244 183.251 66.7577 179.785C65.5577 178.051 59.9577 172.985 54.2244 168.585C41.2911 158.851 37.4244 154.318 32.0911 143.118C28.0911 134.851 27.9577 133.651 27.9577 117.785C27.9577 102.185 28.2244 100.585 31.6911 93.5179C36.2244 84.1846 67.1577 50.3179 77.9577 42.7179C91.6911 33.1179 112.358 29.7845 128.758 34.5846Z" fill="white"/>
<path d="M421.291 36.9847C399.558 41.3847 385.158 49.118 368.624 65.7847C354.224 80.318 348.224 90.1846 342.624 109.118C339.558 119.251 339.024 123.785 338.891 137.785C338.758 157.785 341.024 167.785 349.291 185.118C355.824 198.585 363.558 208.585 374.091 217.251C382.224 223.918 399.691 233.251 406.624 234.585C409.158 234.985 411.424 236.318 411.824 237.651C412.091 238.851 413.424 250.985 414.758 264.585C417.024 288.851 417.024 289.518 414.491 293.785C410.491 300.718 405.424 303.785 397.958 303.785C392.624 303.785 390.758 303.118 387.424 299.918C379.691 292.585 379.691 287.518 387.158 263.785C389.291 257.118 391.291 249.918 391.691 247.785L392.491 243.651L367.558 236.585C353.824 232.585 341.958 229.118 341.158 228.851C339.691 228.318 329.558 258.985 327.291 270.985C325.291 281.518 325.691 297.385 327.958 306.451C336.624 339.651 368.891 362.451 403.958 359.918C427.958 358.318 447.691 346.718 460.891 326.585C471.291 310.451 473.824 295.251 470.624 266.185C469.424 255.118 468.624 244.051 468.891 241.651C469.291 237.518 469.558 237.251 477.691 235.651C494.624 232.185 509.291 222.318 518.224 208.451C525.958 196.318 529.424 178.318 526.758 164.051C522.758 143.385 511.291 128.051 493.291 119.518C470.624 108.851 442.224 113.251 424.624 130.051C415.024 139.385 409.824 149.385 406.624 164.851C405.958 168.185 405.558 168.451 403.824 166.985C402.624 166.051 400.091 162.185 398.224 158.585C395.158 152.718 394.624 150.185 394.624 139.785C394.624 129.118 395.024 126.851 398.891 118.851C404.091 107.785 411.824 99.918 422.758 94.8513C430.491 91.2513 432.358 90.8513 441.691 91.3846C449.824 91.7846 453.824 92.718 461.158 96.1846C466.224 98.5846 470.491 100.318 470.624 100.185C471.424 98.9846 497.958 52.0513 497.958 51.918C497.958 50.8513 473.024 39.918 467.024 38.318C456.758 35.518 432.624 34.8513 421.291 36.9847ZM465.291 39.7847C469.558 40.9847 478.091 44.1847 484.358 47.118L495.558 52.4513L493.024 56.718C491.558 59.118 485.824 69.3847 480.091 79.3847L469.691 97.6513L464.891 95.6513C456.091 91.7846 444.491 88.4513 439.958 88.4513C432.891 88.4513 419.158 93.3846 412.358 98.4513C404.891 103.918 397.291 114.851 394.491 123.785C392.091 132.185 392.091 147.785 394.624 155.251C396.758 161.385 405.158 173.785 407.158 173.785C407.691 173.785 408.624 169.918 408.891 165.251C409.958 153.385 416.091 141.251 426.091 131.785C458.758 100.585 512.491 115.918 523.958 159.785C529.291 180.451 523.291 201.918 507.958 217.251C498.358 226.851 488.091 232.185 475.291 234.185C468.491 235.385 465.958 236.185 465.958 237.785C465.958 238.851 466.891 248.185 467.958 258.451C472.624 301.785 468.891 317.518 449.291 337.251C434.624 352.051 420.758 357.651 398.491 357.785C378.358 357.785 361.958 351.118 347.958 337.118C331.558 320.585 324.491 297.918 328.624 274.318C330.758 262.185 340.891 230.985 342.624 231.385C363.958 237.118 389.958 245.385 389.958 246.451C389.958 247.251 387.558 256.051 384.624 265.785C378.491 286.185 378.224 289.518 382.091 296.451C388.624 308.051 403.958 309.251 413.691 298.851C419.024 293.118 419.291 289.118 416.224 260.718L413.424 234.051L408.491 233.251C405.824 232.851 398.624 229.918 392.491 226.985C378.624 220.051 361.024 203.251 353.558 189.785C338.624 162.718 336.491 127.251 348.091 98.5846C359.291 70.9846 385.291 48.4513 415.291 40.318C426.758 37.2513 454.224 36.9847 465.291 39.7847Z" fill="white"/>
<path d="M463.824 168.185C461.158 169.918 459.291 174.851 459.291 179.918C459.291 184.718 459.424 184.718 463.558 183.918C473.424 181.918 476.891 175.385 471.291 169.785C468.491 166.985 466.224 166.451 463.824 168.185ZM471.291 172.318C473.558 176.718 469.824 181.785 464.091 181.785C461.824 181.785 461.158 176.051 462.758 171.918C463.958 168.985 469.558 169.251 471.291 172.318Z" fill="white"/>
</svg>
