<svg width="1378" height="842" viewBox="0 0 1378 842" fill="none" xmlns="http://www.w3.org/2000/svg">
<g clip-path="url(#clip0_4_10)">
<rect width="1378" height="842" fill="url(#paint0_linear_4_10)"/>
<path d="M236.584 143.932C885 120.953 1007.35 530.98 1544.85 471.904L1520.51 624.391L212.244 588.393C16.173 479.236 -266.497 161.761 236.584 143.932Z" fill="url(#paint1_linear_4_10)"/>
<path d="M173.802 244.302C733.5 183.368 1035.39 652.771 1481.85 572.021L1457.52 724.391H2.50003C-193.538 615.317 -339.266 300.159 173.802 244.302Z" fill="url(#paint2_linear_4_10)"/>
<path d="M112.943 311.089C602.851 217.333 742.564 774.361 1420.85 639.636L1404 889.5H-15.5C-211.517 780.151 -376.964 404.845 112.943 311.089Z" fill="url(#paint3_linear_4_10)"/>
<rect y="762" width="1378" height="80" fill="url(#paint4_linear_4_10)"/>
<rect x="1379" y="80" width="1378" height="80" transform="rotate(180 1379 80)" fill="url(#paint5_linear_4_10)"/>
</g>
<defs>
<linearGradient id="paint0_linear_4_10" x1="1768.24" y1="-238" x2="1315.96" y2="1243.69" gradientUnits="userSpaceOnUse">
<stop stop-color="#1F1F1F"/>
<stop offset="1"/>
</linearGradient>
<linearGradient id="paint1_linear_4_10" x1="779.16" y1="236.925" x2="607.692" y2="649.643" gradientUnits="userSpaceOnUse">
<stop stop-color="#454545"/>
<stop offset="1"/>
</linearGradient>
<linearGradient id="paint2_linear_4_10" x1="716.288" y1="337.222" x2="545.025" y2="749.696" gradientUnits="userSpaceOnUse">
<stop stop-color="#373737"/>
<stop offset="1"/>
</linearGradient>
<linearGradient id="paint3_linear_4_10" x1="655.37" y1="404.244" x2="483.356" y2="817.439" gradientUnits="userSpaceOnUse">
<stop stop-color="#333333"/>
<stop offset="1"/>
</linearGradient>
<linearGradient id="paint4_linear_4_10" x1="689" y1="762" x2="689" y2="842" gradientUnits="userSpaceOnUse">
<stop stop-opacity="0"/>
<stop offset="1"/>
</linearGradient>
<linearGradient id="paint5_linear_4_10" x1="2068" y1="80" x2="2068" y2="160" gradientUnits="userSpaceOnUse">
<stop stop-opacity="0"/>
<stop offset="1"/>
</linearGradient>
<clipPath id="clip0_4_10">
<rect width="1378" height="842" fill="white"/>
</clipPath>
</defs>
</svg>
